<svg width="512" height="512" viewBox="0 0 512 512" fill="none" xmlns="http://www.w3.org/2000/svg">
<rect width="512" height="512" fill="none"/>
<path d="M36 52.7017C36 43.4776 43.1634 36 52 36H392C400.837 36 408 43.4776 408 52.7018V257.298C408 266.522 400.837 274 392 274H52C43.1635 274 36 266.522 36 257.298V52.7017Z" fill="#F3F4F6"/>
<path d="M51 77H393V245C393 253.837 385.837 261 377 261H67C58.1634 261 51 253.837 51 245V77Z" fill="#1A2B49"/>
<path d="M75 164.273L133.76 140.084V125.123L75 101V118.73L112.476 131.186L116.393 132.505L112.411 133.823L75 146.477V164.273Z" fill="white"/>
<path d="M214 188V173.698H154.457V188H214Z" fill="white"/>
<circle cx="60" cy="57" r="8" fill="#C6C8D0"/>
<circle cx="81" cy="57" r="8" fill="#C6C8D0"/>
<circle cx="103" cy="57" r="8" fill="#C6C8D0"/>
<path d="M125 254C125 245.163 132.163 238 141 238H460C468.837 238 476 245.163 476 254V460C476 468.837 468.837 476 460 476H141C132.163 476 125 468.837 125 460V254Z" fill="white"/>
<path fill-rule="evenodd" clip-rule="evenodd" d="M460 250H141C138.791 250 137 251.791 137 254V460C137 462.209 138.791 464 141 464H460C462.209 464 464 462.209 464 460V254C464 251.791 462.209 250 460 250ZM141 238C132.163 238 125 245.163 125 254V460C125 468.837 132.163 476 141 476H460C468.837 476 476 468.837 476 460V254C476 245.163 468.837 238 460 238H141Z" fill="#C6C8D0"/>
<path d="M244.5 279C230.355 279 219 290.425 219 304.656C219 314.076 224.18 322.294 231.75 326.704V399.296C224.18 403.706 219 411.924 219 421.344C219 435.575 230.355 447 244.5 447C258.645 447 270 435.575 270 421.344C270 411.924 264.82 403.706 257.25 399.296V326.704C264.82 322.294 270 314.076 270 304.656C270 290.425 258.645 279 244.5 279ZM244.5 434.373C237.527 434.373 231.75 428.56 231.75 421.545C231.75 414.529 237.527 408.717 244.5 408.717C251.473 408.717 257.25 414.529 257.25 421.545C257.25 428.56 251.473 434.373 244.5 434.373ZM244.5 317.484C237.527 317.484 231.75 311.671 231.75 304.656C231.75 297.641 237.527 291.828 244.5 291.828C251.473 291.828 257.25 297.641 257.25 304.656C257.25 311.671 251.473 317.484 244.5 317.484Z" fill="#0071EB"/>
<path d="M370.125 399.304C370.125 399.304 370.125 349.368 370.125 330.129C370.125 310.891 350.812 291.652 331.5 291.652C318.625 291.652 318.625 291.652 318.625 291.652V266L280 304.478L318.625 342.955V317.303C318.625 317.303 325.062 317.303 331.5 317.303C337.938 317.303 344.375 323.716 344.375 330.129C344.375 336.542 344.375 399.304 344.375 399.304C336.73 403.713 331.5 411.929 331.5 421.348C331.5 435.577 342.967 447 357.25 447C371.533 447 383 435.577 383 421.348C383 411.929 377.77 403.713 370.125 399.304ZM357.25 434.174C350.209 434.174 344.375 428.362 344.375 421.348C344.375 414.334 350.209 408.522 357.25 408.522C364.291 408.522 370.125 414.334 370.125 421.348C370.125 428.362 364.291 434.174 357.25 434.174Z" fill="#0071EB"/>
</svg>
